<mxfile host="Electron" modified="2024-01-08T17:57:57.745Z" agent="Mozilla/5.0 (Windows NT 10.0; Win64; x64) AppleWebKit/537.36 (KHTML, like Gecko) draw.io/22.0.3 Chrome/114.0.5735.289 Electron/25.8.4 Safari/537.36" etag="AE_cbed6iPVAdyosGb6L" version="22.0.3" type="device">
  <diagram name="Purchase State Machine" id="c07bpfMv5roMCaFiuGR-">
    <mxGraphModel dx="1050" dy="621" grid="1" gridSize="10" guides="1" tooltips="1" connect="1" arrows="1" fold="1" page="1" pageScale="1" pageWidth="850" pageHeight="1100" math="0" shadow="0">
      <root>
        <mxCell id="0" />
        <mxCell id="1" parent="0" />
        <mxCell id="WcquoDSI1du9C3Wa--Hi-7" value="user placed order" style="edgeStyle=orthogonalEdgeStyle;rounded=0;orthogonalLoop=1;jettySize=auto;html=1;entryX=0;entryY=0.5;entryDx=0;entryDy=0;" edge="1" parent="1" source="WcquoDSI1du9C3Wa--Hi-1" target="WcquoDSI1du9C3Wa--Hi-8">
          <mxGeometry y="20" relative="1" as="geometry">
            <mxPoint x="200" y="140" as="targetPoint" />
            <mxPoint as="offset" />
          </mxGeometry>
        </mxCell>
        <mxCell id="WcquoDSI1du9C3Wa--Hi-1" value="" style="ellipse;html=1;shape=startState;fillColor=#000000;strokeColor=#ff0000;" vertex="1" parent="1">
          <mxGeometry y="160" width="40" height="40" as="geometry" />
        </mxCell>
        <mxCell id="WcquoDSI1du9C3Wa--Hi-4" value="" style="ellipse;html=1;shape=endState;fillColor=strokeColor;" vertex="1" parent="1">
          <mxGeometry x="770" y="165" width="30" height="30" as="geometry" />
        </mxCell>
        <mxCell id="WcquoDSI1du9C3Wa--Hi-10" value="saved order" style="edgeStyle=orthogonalEdgeStyle;rounded=0;orthogonalLoop=1;jettySize=auto;html=1;entryX=0;entryY=0.5;entryDx=0;entryDy=0;" edge="1" parent="1" source="WcquoDSI1du9C3Wa--Hi-8" target="WcquoDSI1du9C3Wa--Hi-9">
          <mxGeometry y="20" relative="1" as="geometry">
            <mxPoint as="offset" />
          </mxGeometry>
        </mxCell>
        <mxCell id="WcquoDSI1du9C3Wa--Hi-8" value="Order Saving" style="html=1;align=center;verticalAlign=top;rounded=1;absoluteArcSize=1;arcSize=10;dashed=0;whiteSpace=wrap;" vertex="1" parent="1">
          <mxGeometry x="180" y="160" width="140" height="40" as="geometry" />
        </mxCell>
        <mxCell id="WcquoDSI1du9C3Wa--Hi-12" value="user credits deducted" style="edgeStyle=orthogonalEdgeStyle;rounded=0;orthogonalLoop=1;jettySize=auto;html=1;exitX=1;exitY=0.5;exitDx=0;exitDy=0;entryX=0;entryY=0.5;entryDx=0;entryDy=0;" edge="1" parent="1" source="WcquoDSI1du9C3Wa--Hi-9" target="WcquoDSI1du9C3Wa--Hi-4">
          <mxGeometry x="0.0222" y="20" relative="1" as="geometry">
            <mxPoint x="450" y="280" as="sourcePoint" />
            <mxPoint x="530" y="260" as="targetPoint" />
            <mxPoint as="offset" />
          </mxGeometry>
        </mxCell>
        <mxCell id="WcquoDSI1du9C3Wa--Hi-9" value="Deducting Credits" style="html=1;align=center;verticalAlign=top;rounded=1;absoluteArcSize=1;arcSize=10;dashed=0;whiteSpace=wrap;" vertex="1" parent="1">
          <mxGeometry x="440" y="160" width="140" height="40" as="geometry" />
        </mxCell>
      </root>
    </mxGraphModel>
  </diagram>
</mxfile>
